<?xml version="1.0" encoding="UTF-8"?>
<svg width="64" height="64" viewBox="0 0 64 64" fill="none" xmlns="http://www.w3.org/2000/svg">
  <rect width="64" height="64" rx="8" fill="#0077BE"/>
  <path d="M20 20C20 17.7909 21.7909 16 24 16H40C42.2091 16 44 17.7909 44 20V44C44 46.2091 42.2091 48 40 48H24C21.7909 48 20 46.2091 20 44V20Z" fill="white"/>
  <path d="M28 24C28 25.1046 27.1046 26 26 26C24.8954 26 24 25.1046 24 24C24 22.8954 24.8954 22 26 22C27.1046 22 28 22.8954 28 24Z" fill="#0077BE"/>
  <path d="M40 24C40 25.1046 39.1046 26 38 26C36.8954 26 36 25.1046 36 24C36 22.8954 36.8954 22 38 22C39.1046 22 40 22.8954 40 24Z" fill="#0077BE"/>
  <path d="M24 32H40V40H24V32Z" fill="#0077BE"/>
</svg> 